:version 1.10
:name ASF
:units
  mass 1
  length 1
  angle deg
:documentation
  ASF file generated by Kaydara
:root
  axis xyz
  order  tx ty tz rx ry rz
  position 0 0 0
  orientation 0 0 0
:bonedata
  begin
    id 1
    name LeftUpLegDummy
    direction 1 -2.30186e-007 -8.31532e-007
    length 2.93387
    axis 0 0 0 xyz
  end
  begin
    id 2
    name LeftUpLeg
    direction -1.82929e-007 -1 -1.48925e-009
    length 17.3336
    axis -3.48766 0.00143442 -0.000521554 xyz
    dof rx ry rz
  end
  begin
    id 3
    name LeftLeg
    direction -1.82929e-007 -1 -5.23717e-011
    length 14.9995
    axis 3.68178 -0.00654042 -0.000282425 xyz
    dof rx ry rz
  end
  begin
    id 4
    name LeftFoot
    direction 8.31532e-007 -4.54534e-011 1
    length 6.74421
    axis 1.87234e-006 4.66016e-005 -5.96866e-006 xyz
    dof rx ry rz
  end
  begin
    id 5
    name LeftToes
    direction 0.00818058 -0.00485161 0.999955
    length 3.85048
    axis 1.06247e-005 4.65869e-005 -5.96999e-006 xyz
    dof rx ry rz
  end
  begin
    id 6
    name SpineDummy
    direction -5.8607e-008 0.943407 -0.331637
    length 5.93572
    axis 0 0 0 xyz
  end
  begin
    id 7
    name Spine
    direction -1.04988e-007 0.999988 0.00495137
    length 10.1015
    axis -0.001389 0.000121417 6.61666e-006 xyz
    dof rx ry rz
  end
  begin
    id 8
    name Spine1
    direction 0 0 0
    length 0
    axis -0.001389 0.00012144 6.56766e-006 xyz
    dof rx ry rz
  end
  begin
    id 9
    name RightShoulderDummy
    direction -0.98348 0.17941 -0.0240696
    length 3.59882
    axis -0.001389 0.00012144 6.56766e-006 xyz
  end
  begin
    id 10
    name RightShoulder
    direction -0.978693 0.204882 0.0135597
    length 2.70001
    axis 0.215806 0.000203631 -0.00679732 xyz
    dof rx ry rz
  end
  begin
    id 11
    name RightArm
    direction -1 3.85509e-006 8.31394e-007
    length 10.2459
    axis -23.2009 -0.134239 -0.964098 xyz
    dof rx ry rz
  end
  begin
    id 12
    name RightForeArm
    direction -1 3.85569e-006 8.3129e-007
    length 8.16799
    axis -9.92322 0.0658061 0.17887 xyz
    dof rx ry rz
  end
  begin
    id 13
    name RightHand
    direction -0.992843 -0.0414604 0.112003
    length 5.28593
    axis -0.00960638 0.00330669 -0.185225 xyz
    dof rx ry rz
  end
  begin
    id 14
    name LeftShoulder1Dummy
    direction 0.983523 0.179172 -0.0240748
    length 3.59866
    axis -0.001389 0.00012144 6.56766e-006 xyz
  end
  begin
    id 15
    name LeftShoulder1
    direction 0.978627 0.205195 0.0135605
    length 2.70019
    axis -0.001389 0.00012144 6.57583e-006 xyz
    dof rx ry rz
  end
  begin
    id 16
    name LeftArm
    direction 1 3.51895e-006 -8.60188e-007
    length 10.2459
    axis -23.1894 0.134785 0.967513 xyz
    dof rx ry rz
  end
  begin
    id 17
    name LeftForeArm
    direction 1 3.51921e-006 -7.32029e-007
    length 8.16799
    axis -9.91835 -0.0656957 -0.177789 xyz
    dof rx ry rz
  end
  begin
    id 18
    name LeftHand
    direction 0.992938 -0.0411636 0.11126
    length 5.32135
    axis -0.00960237 -0.00340661 0.185177 xyz
    dof rx ry rz
  end
  begin
    id 19
    name HEadDummy
    direction 1.01974e-006 0.999861 -0.016675
    length 2.99946
    axis -0.001389 0.00012144 6.56766e-006 xyz
  end
  begin
    id 20
    name HEad
    direction -0.0222689 0.980941 0.193023
    length 5.12695
    axis -0.001389 0.00012144 6.56766e-006 xyz
    dof rx ry rz
  end
  begin
    id 21
    name RightUpLegDummy
    direction -1 2.30186e-007 8.31532e-007
    length 2.93387
    axis 0 0 0 xyz
  end
  begin
    id 22
    name RightUpLeg
    direction -1.82966e-007 -1 1.56832e-007
    length 17.3336
    axis -3.4909 -0.000906625 0.00028951 xyz
    dof rx ry rz
  end
  begin
    id 23
    name RightLeg
    direction -1.82786e-007 -1 -1.80317e-007
    length 14.9995
    axis 3.68513 0.0193739 -0.131021 xyz
    dof rx ry rz
  end
  begin
    id 24
    name RightFoot
    direction 8.31721e-007 -4.63324e-011 1
    length 6.74421
    axis 4.81691e-005 -0.120479 -0.188785 xyz
    dof rx ry rz
  end
  begin
    id 25
    name RightToes
    direction 0.00124746 -0.014064 0.9999
    length 3.85082
    axis 0.000481921 0.542163 -0.142575 xyz
    dof rx ry rz
  end
:hierarchy
  begin
    root LeftUpLegDummy SpineDummy RightUpLegDummy
    LeftUpLegDummy LeftUpLeg
    LeftUpLeg LeftLeg
    LeftLeg LeftFoot
    LeftFoot LeftToes
    SpineDummy Spine
    Spine Spine1
    Spine1 RightShoulderDummy LeftShoulder1Dummy HEadDummy
    RightShoulderDummy RightShoulder
    RightShoulder RightArm
    RightArm RightForeArm
    RightForeArm RightHand
    LeftShoulder1Dummy LeftShoulder1
    LeftShoulder1 LeftArm
    LeftArm LeftForeArm
    LeftForeArm LeftHand
    HEadDummy HEad
    RightUpLegDummy RightUpLeg
    RightUpLeg RightLeg
    RightLeg RightFoot
    RightFoot RightToes
  end

:SAMPLES-PER-SECOND 30
:FULLY-SPECIFIED
:DEGREES
1
root  -2.17261 34.4358 27.7312 6.17499 17.2489 -1.88921
LeftUpLeg  -15.8338 5.87099 9.71308
LeftLeg  6.43432 -3.56467 -0.17201
LeftFoot  13.8805 0.108945 -0.89499
LeftToes  -32.4935 2.60077e-006 -1.42232e-007
Spine  3.68784 0.919015 -1.89056
Spine1  6.72323 2.1435 -4.0093
RightShoulder  0.0841963 5.46716 4.56883
RightArm  -39.5926 5.50984 60.6885
RightForeArm  84.8993 79.0964 67.6286
RightHand  0.68296 -2.18168 -34.294
LeftShoulder1  0.062291 -0.217761 -9.34698
LeftArm  -9.1136 2.20074 -66.9121
LeftForeArm  26.9298 -56.2224 -15.333
LeftHand  0.049964 1.80889 2.78347
HEad  3.16267 -14.4501 0.0129069
RightUpLeg  -16.1946 -20.6327 5.9711
RightLeg  11.9128 17.6005 2.51103
RightFoot  3.92475 -0.0354883 1.27387
RightToes  -23.6508 -0.102732 -0.205508
2
root  -1.94428 34.4187 27.7332 6.14649 15.4945 -2.16877
LeftUpLeg  -15.883 6.03702 9.48676
LeftLeg  7.0848 -4.88365 -0.290861
LeftFoot  12.8268 0.127393 -1.13332
LeftToes  -24.3122 2.60077e-006 -1.42232e-007
Spine  3.69704 0.79308 -1.9861
Spine1  6.70319 1.86379 -4.15278
RightShoulder  0.0842002 5.40068 4.50239
RightArm  -37.0858 6.05076 61.0615
RightForeArm  90.7424 79.3319 71.038
RightHand  0.46705 -1.50268 -34.0199
LeftShoulder1  0.070263 -0.523965 -9.13592
LeftArm  -8.09064 -0.668962 -66.7569
LeftForeArm  28.5904 -58.4398 -16.7429
LeftHand  0.0421243 1.36507 3.14885
HEad  2.90614 -13.252 0.0799563
RightUpLeg  -16.2311 -19.8025 5.87528
RightLeg  12.1345 18.3554 2.68635
RightFoot  3.94939 -0.0396392 1.33828
RightToes  -24.9779 -0.110911 -0.215591
3
root  -1.69093 34.3994 27.7368 5.98128 13.6065 -2.67883
LeftUpLeg  -15.5934 5.60385 9.7717
LeftLeg  7.96334 -1.71419 -0.129234
LeftFoot  11.8178 0.0414963 -0.400948
LeftToes  -26.0506 2.60077e-006 -1.42232e-007
Spine  3.73092 0.724477 -1.97364
Spine1  6.74004 1.69388 -4.08287
RightShoulder  0.0843096 5.09564 4.51386
RightArm  -33.89 7.54987 60.7439
RightForeArm  93.0704 79.3489 71.293
RightHand  0.335553 -1.07341 -34.1514
LeftShoulder1  0.0763741 -0.766686 -8.81319
LeftArm  -7.08785 -3.89001 -66.7889
LeftForeArm  30.0283 -60.4435 -18.1904
LeftHand  0.0459101 1.31782 3.60141
HEad  2.57491 -12.1473 0.0515584
RightUpLeg  -15.9802 -18.2284 5.84872
RightLeg  11.9399 18.4924 2.64283
RightFoot  4.17125 -0.0448409 1.419
RightToes  -26.2836 -0.119184 -0.225324
4
root  -1.43387 34.4224 27.7406 5.89737 11.4793 -2.73976
LeftUpLeg  -14.8767 5.26643 9.70397
LeftLeg  8.15151 0.601811 0.0461031
LeftFoot  11.2043 -0.00655688 0.0668373
LeftToes  -25.3257 2.60077e-006 -1.42232e-007
Spine  3.76947 0.632929 -2.09576
Spine1  6.80264 1.47581 -4.25736
RightShoulder  0.0843795 4.90703 4.53882
RightArm  -30.3668 10.1926 60.3329
RightForeArm  91.767 79.0911 67.5015
RightHand  0.0964809 -0.299946 -34.5807
LeftShoulder1  0.0810809 -0.946492 -8.56318
LeftArm  -6.5371 -7.30499 -66.5471
LeftForeArm  31.6339 -61.8732 -19.3461
LeftHand  0.0344759 0.899217 3.99041
HEad  2.27195 -10.9761 0.109149
RightUpLeg  -15.4579 -15.8315 5.31098
RightLeg  11.1576 17.8898 2.31508
RightFoot  4.77258 -0.0537492 1.55722
RightToes  -27.6409 -0.128018 -0.23524
5
root  -1.15187 34.4602 27.7381 5.79669 9.34084 -2.61018
LeftUpLeg  -14.1795 5.47586 9.39794
LeftLeg  8.45596 2.09597 0.174038
LeftFoot  10.6424 -0.0314699 0.337866
LeftToes  -25.188 2.60077e-006 -1.42232e-007
Spine  3.7747 0.557154 -2.33056
Spine1  6.79175 1.3111 -4.67538
RightShoulder  0.0844223 4.77586 4.54142
RightArm  -27.049 13.595 60.1007
RightForeArm  88.2863 78.4864 60.8742
RightHand  -0.162677 0.519436 -34.8235
LeftShoulder1  0.085302 -1.27909 -8.11151
LeftArm  -6.36913 -10.4489 -66.0825
LeftForeArm  33.1305 -62.9773 -20.3217
LeftHand  0.0224229 0.550072 4.24492
HEad  2.38261 -9.81009 0.37602
RightUpLeg  -14.9895 -13.9632 4.61064
RightLeg  10.5104 17.5472 2.07423
RightFoot  5.34436 -0.063113 1.7025
RightToes  -28.7753 -0.135579 -0.243365
6
root  -0.826338 34.4787 27.7182 5.72274 7.15238 -2.54906
LeftUpLeg  -13.6365 6.22797 8.99569
LeftLeg  8.87866 3.12455 0.283019
LeftFoot  9.88017 -0.0428086 0.489607
LeftToes  -24.7492 2.60077e-006 -1.42232e-007
Spine  3.70386 0.617235 -2.54209
Spine1  6.61187 1.43614 -5.07199
RightShoulder  0.0844354 4.72634 4.53339
RightArm  -24.326 17.5159 59.5046
RightForeArm  83.3275 77.475 53.1631
RightHand  -0.288163 0.922072 -34.5711
LeftShoulder1  0.0873208 -1.67203 -7.6643
LeftArm  -6.31535 -13.2502 -65.7317
LeftForeArm  34.0394 -63.5348 -20.8454
LeftHand  0.00280399 0.0629147 4.26308
HEad  2.7206 -8.84417 0.610332
RightUpLeg  -14.9006 -13.1769 4.05363
RightLeg  10.4474 18.3451 2.14544
RightFoot  5.71349 -0.0764893 1.91004
RightToes  -29.6809 -0.14173 -0.249742
7
root  -0.491545 34.4943 27.6732 5.78684 5.07112 -2.45946
LeftUpLeg  -13.1647 7.53642 8.37417
LeftLeg  8.86992 3.77429 0.341426
LeftFoot  9.27778 -0.0470975 0.565666
LeftToes  -23.6944 2.60077e-006 -1.42232e-007
Spine  3.65683 0.71223 -2.79457
Spine1  6.49394 1.64358 -5.55886
RightShoulder  0.0844186 4.64943 4.39604
RightArm  -22.4186 22.4183 58.9762
RightForeArm  76.664 75.6454 43.9508
RightHand  -0.2472 0.812668 -33.7248
LeftShoulder1  0.088489 -1.85609 -7.1417
LeftArm  -6.332 -15.9912 -65.6231
LeftForeArm  33.8152 -63.4336 -20.7488
LeftHand  -0.00982473 -0.253052 4.19214
HEad  2.54574 -8.06029 1.02825
RightUpLeg  -15.0335 -12.6102 3.51936
RightLeg  10.3815 19.4172 2.24417
RightFoot  6.1388 -0.0968395 2.1831
RightToes  -30.192 -0.145245 -0.253298
8
root  -0.156177 34.5142 27.6126 5.91298 3.43425 -2.25439
LeftUpLeg  -12.6771 8.45281 7.5787
LeftLeg  8.3219 4.54643 0.367653
LeftFoot  9.0131 -0.051887 0.673298
LeftToes  -22.6716 2.60077e-006 -1.42232e-007
Spine  3.58377 0.791599 -3.06132
Spine1  6.31465 1.82148 -6.07772
RightShoulder  0.0844308 4.52261 4.30498
RightArm  -20.7712 27.7219 58.1466
RightForeArm  68.9484 72.6485 34.5948
RightHand  -0.139525 0.481052 -32.3986
LeftShoulder1  0.0903092 -2.07617 -6.76598
LeftArm  -6.45478 -18.2182 -65.7888
LeftForeArm  32.4969 -62.1492 -19.5827
LeftHand  -0.0161911 -0.449694 3.81313
HEad  2.28768 -7.82114 1.56009
RightUpLeg  -15.1648 -11.7221 2.82162
RightLeg  10.0842 19.8239 2.1874
RightFoot  6.65461 -0.118754 2.4197
RightToes  -30.5511 -0.147734 -0.255778
9
root  0.173411 34.5316 27.5402 5.93706 2.2339 -2.04713
LeftUpLeg  -12.4588 8.93131 6.81369
LeftLeg  8.22337 5.25203 0.415644
LeftFoot  8.67926 -0.0543383 0.758286
LeftToes  -21.7241 2.60077e-006 -1.42232e-007
Spine  3.63183 0.871295 -3.33065
Spine1  6.35727 2.01816 -6.61514
RightShoulder  0.0843712 4.5097 4.07615
RightArm  -19.6054 33.1548 57.2023
RightForeArm  63.2063 68.5106 26.7402
RightHand  -0.00245265 0.0152614 -30.926
LeftShoulder1  0.0939347 -2.43754 -6.3798
LeftArm  -6.73471 -19.944 -66.2125
LeftForeArm  31.5437 -59.8799 -17.7645
LeftHand  -0.0224714 -0.656758 3.58729
HEad  1.87045 -7.95532 2.07681
RightUpLeg  -15.1844 -10.5479 2.02659
RightLeg  9.681 19.4043 2.00746
RightFoot  7.21404 -0.137769 2.56254
RightToes  -31.2688 -0.152755 -0.260687
10
root  0.495591 34.5371 27.4698 5.89517 1.16009 -1.88939
LeftUpLeg  -12.5894 9.64535 6.11146
LeftLeg  8.89316 5.54143 0.503598
LeftFoot  7.98028 -0.0498821 0.739516
LeftToes  -20.8638 2.60077e-006 -1.42232e-007
Spine  3.73121 1.06747 -3.62798
Spine1  6.47881 2.46656 -7.21746
RightShoulder  0.0842689 4.59494 3.78185
RightArm  -18.8937 38.2111 56.1511
RightForeArm  60.1916 63.6778 20.9458
RightHand  0.255699 -0.943443 -29.7601
LeftShoulder1  0.0980847 -2.87235 -5.8956
LeftArm  -6.83292 -20.9811 -66.9674
LeftForeArm  31.1133 -56.8372 -15.706
LeftHand  -0.0278007 -0.732914 4.01263
HEad  1.48868 -8.43267 2.71553
RightUpLeg  -15.2748 -9.90197 1.32943
RightLeg  9.54776 19.6538 1.98708
RightFoot  7.65082 -0.159299 2.75934
RightToes  -32.1478 -0.158987 -0.266613
11
root  0.806975 34.5405 27.4133 5.8961 0.0860958 -1.79248
LeftUpLeg  -12.7229 10.5914 5.45877
LeftLeg  9.46046 5.65508 0.570261
LeftFoot  7.27514 -0.0439418 0.691186
LeftToes  -20.1907 2.60077e-006 -1.42232e-007
Spine  3.80938 1.39773 -3.90802
Spine1  6.55394 3.18982 -7.7907
RightShoulder  0.0847875 4.93451 3.40494
RightArm  -18.6648 42.4762 54.4346
RightForeArm  58.6988 58.5713 16.7939
RightHand  0.463378 -1.72099 -29.6588
LeftShoulder1  0.101875 -3.26273 -5.45764
LeftArm  -6.82881 -21.3737 -68.0767
LeftForeArm  30.5175 -52.8532 -13.4919
LeftHand  -0.0253803 -0.635584 4.24999
HEad  1.17198 -9.27051 3.43006
RightUpLeg  -15.412 -9.867 0.801728
RightLeg  9.42809 20.633 2.03958
RightFoot  8.00475 -0.187022 3.04974
RightToes  -32.8184 -0.163803 -0.271069
12
root  1.10657 34.5439 27.371 6.02066 -1.00681 -1.6128
LeftUpLeg  -12.7341 11.2043 4.74209
LeftLeg  9.5327 6.14371 0.627247
LeftFoot  6.77519 -0.0417576 0.705423
LeftToes  -19.355 2.60077e-006 -1.42232e-007
Spine  3.82271 1.83597 -4.22005
Spine1  6.52852 4.10866 -8.40185
RightShoulder  0.0858603 4.90925 3.13014
RightArm  -18.5649 46.2969 52.8809
RightForeArm  58.2714 53.2202 13.6378
RightHand  0.597348 -2.19781 -29.9517
LeftShoulder1  0.104023 -3.66473 -5.28125
LeftArm  -6.68843 -21.1245 -69.0238
LeftForeArm  28.9922 -48.2743 -11.422
LeftHand  -0.00174837 -0.0532017 3.90579
HEad  0.766944 -10.4651 4.02277
RightUpLeg  -15.6299 -9.88883 0.25489
RightLeg  9.20657 21.7315 2.06066
RightFoot  8.36333 -0.219204 3.3747
RightToes  -33.2766 -0.166052 -0.27316
13
root  1.38723 34.5436 27.3289 6.1497 -2.02805 -1.39131
LeftUpLeg  -12.7264 11.4706 4.04416
LeftLeg  9.49185 6.86459 0.695705
LeftFoot  6.41993 -0.0422178 0.755506
LeftToes  -18.7468 2.60077e-006 -1.42232e-007
Spine  3.83868 2.25132 -4.54814
Spine1  6.49002 4.99194 -9.06039
RightShoulder  0.0870166 5.02806 2.97764
RightArm  -19.1384 49.346 51.4319
RightForeArm  57.3877 48.3374 11.4096
RightHand  0.653467 -2.39929 -30.0185
LeftShoulder1  0.106244 -3.98554 -5.27498
LeftArm  -6.95199 -20.0946 -69.5581
LeftForeArm  27.3858 -43.5284 -9.64966
LeftHand  0.0197921 0.746952 2.6411
HEad  0.288914 -11.4982 4.49504
RightUpLeg  -15.9177 -9.38151 -0.36451
RightLeg  9.10959 22.2431 2.0699
RightFoot  8.68297 -0.244615 3.59849
RightToes  -32.9123 -0.167486 -0.27452
14
root  1.65201 34.5412 27.2962 6.24855 -2.83786 -1.16756
LeftUpLeg  -12.702 11.7144 3.35735
LeftLeg  9.38084 7.42398 0.737702
LeftFoot  6.13446 -0.0422394 0.788256
LeftToes  -18.2227 2.60077e-006 -1.42232e-007
Spine  3.88644 2.61253 -4.83501
Spine1  6.51283 5.77043 -9.64732
RightShoulder  0.0879887 5.21751 3.04997
RightArm  -20.1331 51.6415 49.6641
RightForeArm  57.0484 44.3623 9.90125
RightHand  0.635652 -2.31129 -30.2989
LeftShoulder1  0.110502 -4.45911 -5.44107
LeftArm  -7.68138 -18.4048 -69.5262
LeftForeArm  27.3661 -38.43 -8.04209
LeftHand  0.0157904 0.773381 1.95177
HEad  -0.226867 -12.4239 4.81715
RightUpLeg  -16.2402 -8.98424 -0.960954
RightLeg  9.20138 22.5903 2.13619
RightFoot  8.93757 -0.265571 3.77432
RightToes  -32.6739 -0.168279 -0.275298
15
root  1.899 34.5351 27.2775 6.37839 -3.54528 -0.966421
LeftUpLeg  -12.7448 12.2344 2.66925
LeftLeg  9.29105 7.66986 0.749935
LeftFoot  5.80892 -0.0398589 0.770773
LeftToes  -17.6451 2.60077e-006 -1.42232e-007
Spine  3.91646 2.87142 -5.08272
Spine1  6.53427 6.29212 -10.1271
RightShoulder  0.0885148 5.19785 3.09
RightArm  -21.4749 53.5637 48.6496
RightForeArm  57.6603 40.7505 8.70259
RightHand  0.632708 -2.28129 -30.5449
LeftShoulder1  0.11752 -4.80182 -5.61892
LeftArm  -8.61016 -16.129 -69.1076
LeftForeArm  28.1692 -33.1623 -6.61082
LeftHand  0.0137202 0.673606 1.94372
HEad  -0.606653 -13.1242 4.97173
RightUpLeg  -16.5601 -8.39898 -1.53846
RightLeg  9.27276 22.6311 2.16754
RightFoot  9.15711 -0.280104 3.8739
RightToes  -32.4423 -0.168605 -0.275642
